PathFileType	4	(X/Y/Z)	/Users/itak/Documents/Research/Walk-IL/dataset/trc/00205_00008.trc
DataRate	CameraRate	NumFrames	NumMarkers	Units	OrigDataRate	OrigDataStartFrame	OrigNumFrames
100.000000	100.000000	4	53	mm	100.000000	252	505
Frame#	Time	RPSI			LPSI			L3			STRN			T10			C7			CLAV			RBAK			LBAK			LSHO			LUPA			LAEL			LAOL			LWTS			LWPS			LFRA			LIFD			LHPS			LHTS			RSHO			RUPA			RAEL			RAOL			RWTS			RWPS			RFRA			RIFD			RHTS			RHPS			RBHD			LFHD			RFHD			LBHD			LHIP			RHIP			RASI			LASI			LKNE			LTHI			LANK			LTIP			LTOE			LMT1			LMT5			LHEE			RKNE			RTHI			RANK			RTIP			RTOE			RMT1			RMT5			RHEE			
		X1	Y1	Z1	X2	Y2	Z2	X3	Y3	Z3	X4	Y4	Z4	X5	Y5	Z5	X6	Y6	Z6	X7	Y7	Z7	X8	Y8	Z8	X9	Y9	Z9	X10	Y10	Z10	X11	Y11	Z11	X12	Y12	Z12	X13	Y13	Z13	X14	Y14	Z14	X15	Y15	Z15	X16	Y16	Z16	X17	Y17	Z17	X18	Y18	Z18	X19	Y19	Z19	X20	Y20	Z20	X21	Y21	Z21	X22	Y22	Z22	X23	Y23	Z23	X24	Y24	Z24	X25	Y25	Z25	X26	Y26	Z26	X27	Y27	Z27	X28	Y28	Z28	X29	Y29	Z29	X30	Y30	Z30	X31	Y31	Z31	X32	Y32	Z32	X33	Y33	Z33	X34	Y34	Z34	X35	Y35	Z35	X36	Y36	Z36	X37	Y37	Z37	X38	Y38	Z38	X39	Y39	Z39	X40	Y40	Z40	X41	Y41	Z41	X42	Y42	Z42	X43	Y43	Z43	X44	Y44	Z44	X45	Y45	Z45	X46	Y46	Z46	X47	Y47	Z47	X48	Y48	Z48	X49	Y49	Z49	X50	Y50	Z50	X51	Y51	Z51	X52	Y52	Z52	X53	Y53	Z53	

253	2.52	-445.6752624511719	1051.623901367188	-299.4544677734375	-364.6201477050781	1058.708129882812	-391.5521850585938	-405.2197570800781	1092.936279296875	-342.9376831054688	-211.3204650878906	1300.3818359375	-156.8985595703125	-419.4654541015625	1251.18310546875	-374.0969543457031	-354.1929016113281	1517.239379882812	-336.3671264648438	-220.5571899414062	1414.408081054688	-184.0647888183594	-485.1549377441406	1347.896850585938	-306.5269775390625	-285.8648986816406	1491.203491210938	-410.2694091796875	-178.1750640869141	1477.21435546875	-406.5138854980469	-141.5738525390625	1348.94775390625	-481.2951965332031	-98.89315032958984	1135.978393554688	-490.5365905761719	-184.9450836181641	1112.656127929688	-477.5975646972656	-25.25115966796875	904.7737426757812	-399.0613708496094	-49.84686660766602	886.447509765625	-487.3665466308594	-69.23074340820312	1028.181030273438	-494.605712890625	-17.70674896240234	720.5430297851562	-384.0012817382812	-31.65834426879883	817.7759399414062	-473.9998168945312	4.295117855072021	828.50732421875	-410.5036315917969	-439.5593566894531	1503.204956054688	-163.9352416992188	-505.9135131835938	1440.211791992188	-131.2792816162109	-564.8634643554688	1152.368774414062	-102.6166458129883	-490.3515625	1142.057006835938	-167.318115234375	-446.6538696289062	939.9825439453125	9.061986923217773	-528.4537963867188	914.7974243164062	-13.55745983123779	-559.3942260742188	1081.13916015625	-66.24317932128906	-402.8914489746094	754.7218017578125	19.68796539306641	-426.1566772460938	851.301513671875	42.8041877746582	-501.0882263183594	836.201416015625	14.22127628326416	-362.6076049804688	1680.472900390625	-261.7521057128906	-158.6721496582031	1724.482788085938	-208.3679504394531	-261.6574401855469	1731.579711914062	-130.5744018554688	-259.9289855957031	1679.927612304688	-350.9111328125	-207.7657928466797	1000.904174804688	-407.304931640625	-422.3951110839844	1002.845764160156	-102.8840408325195	-326.1491088867188	1036.39111328125	-87.96250915527344	-154.3419036865234	1033.066528320312	-279.8135681152344	-220.5397186279297	498.2283935546875	-359.5687866210938	-199.5713500976562	642.76171875	-380.1766662597656	-326.4107971191406	33.44089889526367	-419.7582397460938	-262.7662048339844	272.7540283203125	-397.8538513183594	-168.0349731445312	38.74086761474609	-266.2775268554688	-234.3697052001953	45.47276306152344	-259.0448913574219	-217.3265075683594	26.26003265380859	-387.90283203125	-407.5680236816406	42.10871887207031	-395.9809265136719	-267.156005859375	525.0567626953125	-11.23704433441162	-345.6890869140625	791.533935546875	-30.00442314147949	-405.5294189453125	90.74061584472656	-224.9329833984375	-265.5562438964844	401.5185852050781	-40.9299201965332	-258.9600219726562	64.19175720214844	-71.11172485351562	-249.5653076171875	64.90522766113281	-137.7797241210938	-373.329833984375	59.4677619934082	-118.360595703125	-376.3044738769531	106.9789428710938	-302.9935913085938	
254	2.53	-439.0466003417969	1050.977416992188	-295.41015625	-357.7404479980469	1057.9970703125	-387.2278137207031	-398.4541015625	1092.291015625	-338.8700866699219	-204.9419708251953	1299.57861328125	-151.7743530273438	-411.9934387207031	1250.574584960938	-370.0857849121094	-346.9240112304688	1516.568725585938	-331.7528076171875	-214.1131439208984	1413.689697265625	-178.7317810058594	-478.008544921875	1347.186767578125	-302.8192749023438	-278.1454162597656	1490.689331054688	-405.3194580078125	-170.4604797363281	1476.891479492188	-400.755859375	-132.4660797119141	1348.897094726562	-475.1218566894531	-87.19742584228516	1136.435424804688	-483.6788330078125	-173.0380249023438	1112.05810546875	-471.2273254394531	-10.59932613372803	906.9119262695312	-390.5503540039062	-34.82986450195312	887.5311279296875	-478.7655029296875	-56.06631088256836	1028.969970703125	-487.0325622558594	0.1297317147254944	723.0516357421875	-374.0681762695312	-15.51514148712158	819.2850341796875	-464.8328552246094	20.24890327453613	831.1453247070312	-401.4567565917969	-433.2787780761719	1502.287963867188	-159.8576965332031	-499.7410583496094	1439.17578125	-127.7099456787109	-558.157958984375	1151.029907226562	-99.95040130615234	-483.0424499511719	1141.035278320312	-164.0420074462891	-439.64697265625	939.6055297851562	13.15976333618164	-521.0567626953125	913.80322265625	-10.06828498840332	-552.6998901367188	1079.814331054688	-63.48196029663086	-394.6231079101562	754.7150268554688	24.66985893249512	-418.9492492675781	851.1500854492188	47.33302688598633	-493.3926391601562	835.4542236328125	18.11903190612793	-355.7345886230469	1679.809326171875	-256.9647216796875	-152.059326171875	1723.60400390625	-202.4469909667969	-255.3712921142578	1730.716918945312	-125.1679229736328	-252.5962982177734	1679.248046875	-345.5702209472656	-201.2303771972656	999.9315185546875	-402.7665710449219	-416.0466613769531	1002.550354003906	-98.71404266357422	-319.9309387207031	1035.461181640625	-83.52513885498047	-147.5704040527344	1032.03857421875	-275.1681823730469	-218.5899505615234	497.7757873535156	-358.1404724121094	-196.2859802246094	642.1453247070312	-377.4866333007812	-326.4638366699219	33.71708297729492	-419.5623168945312	-261.9363708496094	272.7724914550781	-397.1272277832031	-168.1390533447266	38.51663589477539	-266.2128601074219	-234.47265625	45.25428009033203	-259.0289611816406	-217.3065490722656	26.28801727294922	-387.8709411621094	-407.5754089355469	42.45089721679688	-395.7940673828125	-257.600341796875	526.49658203125	-4.486460208892822	-338.7202453613281	792.2432250976562	-24.56982803344727	-379.3507690429688	81.6287841796875	-207.2819366455078	-252.5329132080078	402.3522644042969	-31.39914512634277	-233.7799224853516	65.56280517578125	-50.8995361328125	-223.4902496337891	64.36264801025391	-117.4047470092773	-347.3299560546875	55.41775131225586	-99.29310607910156	-349.9036254882812	96.21142578125	-285.5628662109375	
255	2.54	-432.4308471679688	1050.1826171875	-291.2261352539062	-350.9570922851562	1057.181884765625	-382.8171691894531	-391.819091796875	1091.524169921875	-334.69873046875	-198.5637664794922	1298.627197265625	-146.6046600341797	-404.6312255859375	1249.84521484375	-365.9200134277344	-339.7331848144531	1515.775024414062	-326.992919921875	-207.6628723144531	1412.82421875	-173.3364715576172	-470.9334411621094	1346.345947265625	-298.915771484375	-270.5509338378906	1490.045654296875	-400.2605590820312	-162.8704833984375	1476.440063476562	-394.9491577148438	-123.5212326049805	1348.74169921875	-468.9264221191406	-75.676025390625	1136.804931640625	-476.7679748535156	-161.2866363525391	1111.384643554688	-464.8102111816406	3.793439865112305	909.0245361328125	-381.9060363769531	-19.99457168579102	888.580810546875	-470.02978515625	-43.08208084106445	1029.692504882812	-479.3678894042969	17.64369201660156	725.5868530273438	-363.9491271972656	0.4165526032447815	820.78369140625	-455.5045776367188	35.92356491088867	833.7684326171875	-392.2320861816406	-426.9829711914062	1501.225463867188	-155.5966491699219	-493.538818359375	1437.991333007812	-123.9235992431641	-551.41455078125	1149.542846679688	-97.08432769775391	-475.712158203125	1139.860595703125	-160.5815887451172	-432.7521057128906	938.9642944335938	17.35375785827637	-513.7713012695312	912.6143188476562	-6.515733242034912	-545.9898681640625	1078.344970703125	-60.55527496337891	-386.6072387695312	754.4159545898438	29.66994667053223	-412.0198364257812	850.6862182617188	51.94998931884766	-485.8876647949219	834.4876098632812	22.05339241027832	-348.9435424804688	1678.980102539062	-252.0503997802734	-145.5346527099609	1722.637451171875	-196.4512176513672	-249.1570587158203	1729.72265625	-119.6651382446289	-245.35595703125	1678.439086914062	-340.1260681152344	-194.7743225097656	998.8958129882812	-398.1655883789062	-409.6992797851562	1002.054016113281	-94.42683410644531	-313.7052001953125	1034.366333007812	-79.05572509765625	-140.849365234375	1030.903686523438	-270.4413757324219	-216.6378631591797	497.2997131347656	-356.6530456542969	-192.9558563232422	641.4863891601562	-374.7100219726562	-326.5045471191406	34.01272201538086	-419.3655395507812	-261.1159057617188	272.7856750488281	-396.3707580566406	-168.1816711425781	38.3154296875	-266.1270446777344	-234.5911865234375	44.99573135375977	-259.0178833007812	-217.2828063964844	26.32466506958008	-387.834716796875	-407.6092529296875	42.81416320800781	-395.5985412597656	-248.4676971435547	527.6220092773438	2.035581350326538	-331.8892211914062	792.655029296875	-19.17986679077148	-353.0884704589844	72.9090576171875	-188.9827728271484	-239.8795166015625	403.0701599121094	-21.94817161560059	-208.8531951904297	67.29640197753906	-30.49394798278809	-197.6380310058594	64.28015899658203	-96.77182769775391	-321.4169006347656	51.75935745239258	-79.78718566894531	-323.4834594726562	85.94718933105469	-267.4264526367188	
256	2.55	-425.8240966796875	1049.240112304688	-286.8998718261719	-344.2681579589844	1056.264282226562	-378.320068359375	-385.2924499511719	1090.635131835938	-330.4141235351562	-192.1847839355469	1297.530395507812	-141.3823547363281	-397.3713073730469	1248.991088867188	-361.5931396484375	-332.6166687011719	1514.854858398438	-322.0839538574219	-201.2058258056641	1411.811645507812	-167.8738403320312	-463.9247741699219	1345.370483398438	-294.8145141601562	-263.0744934082031	1489.271118164062	-395.091064453125	-155.4061279296875	1475.854858398438	-389.093505859375	-114.7431106567383	1348.47216796875	-462.7101440429688	-64.33695983886719	1137.0791015625	-469.8083801269531	-149.701904296875	1110.628051757812	-458.3506774902344	17.90435600280762	911.0974731445312	-373.1317138671875	-5.353014945983887	889.5914306640625	-461.1648864746094	-30.28741645812988	1030.340698242188	-471.6165466308594	34.79664611816406	728.1317749023438	-353.6587219238281	16.12013816833496	822.2620239257812	-446.0243530273438	51.29270172119141	836.3609008789062	-382.8327941894531	-420.6710815429688	1500.01611328125	-151.1444549560547	-487.3071899414062	1436.656982421875	-119.9120407104492	-544.6412353515625	1147.913208007812	-93.99999237060547	-468.3855285644531	1138.537841796875	-156.9269561767578	-425.9722900390625	938.056884765625	21.64620399475098	-506.6073608398438	911.2294311523438	-2.891828775405884	-539.2750854492188	1076.734497070312	-57.44762802124023	-378.8536682128906	753.8162841796875	34.67830276489258	-405.3339538574219	849.9139404296875	56.64727401733398	-478.574462890625	833.2969970703125	26.02990341186523	-342.2286071777344	1677.98876953125	-247.0036315917969	-139.0908355712891	1721.57763671875	-190.3771057128906	-243.0060729980469	1728.59423828125	-114.0603637695312	-238.2054748535156	1677.503784179688	-334.5738220214844	-188.3502349853516	997.8054809570312	-393.4861755371094	-403.3478698730469	1001.345825195312	-90.02059936523438	-307.4553833007812	1033.13916015625	-74.55785369873047	-134.1711730957031	1029.666748046875	-265.6307678222656	-214.6840515136719	496.8069763183594	-355.1157531738281	-189.5849304199219	640.79052734375	-371.8581848144531	-326.5366516113281	34.33063507080078	-419.167724609375	-260.3067321777344	272.806396484375	-395.5953674316406	-168.1470031738281	38.14442443847656	-266.015380859375	-234.6956176757812	44.72003555297852	-259.0030822753906	-217.2578277587891	26.36721420288086	-387.7954406738281	-407.6654357910156	43.20091247558594	-395.38916015625	-239.7343139648438	528.4089965820312	8.336584091186523	-325.1991882324219	792.7492065429688	-13.82525539398193	-326.799072265625	64.68145751953125	-170.0929107666016	-227.5740203857422	403.6667175292969	-12.59136295318604	-184.2181701660156	69.40383911132812	-9.957406044006348	-172.0684051513672	64.68278503417969	-75.9605712890625	-295.6438598632812	48.54124450683594	-59.91533660888672	-297.0521240234375	76.29074096679688	-248.6426696777344	
